<?xml version="1.0" encoding="utf-8"?>
<!-- Generator: Adobe Illustrator 18.0.0, SVG Export Plug-In . SVG Version: 6.00 Build 0)  -->
<!DOCTYPE svg PUBLIC "-//W3C//DTD SVG 1.1//EN" "http://www.w3.org/Graphics/SVG/1.1/DTD/svg11.dtd">
<svg version="1.1" id="logo" xmlns="http://www.w3.org/2000/svg" xmlns:xlink="http://www.w3.org/1999/xlink" x="0px" y="0px"
	 width="173.1px" height="298px" viewBox="0 0 173.1 298" enable-background="new 0 0 173.1 298" xml:space="preserve">
<path fill="#2D2D2D" d="M72.8,38.5l13.3,23l13.3-23L86,15.5L72.8,38.5z M86,51.5l-7.5-13l7.5-13l7.5,13L86,51.5z"/>
<path fill="#2D2D2D" d="M48.2,68h26.6L61.5,45H34.9L48.2,68z M66.1,63h-15l-7.5-13h15L66.1,63z"/>
<path fill="#2D2D2D" d="M48.3,81L35,104h26.6l13.3-23H48.3z M58.7,99h-15l7.5-13h15L58.7,99z"/>
<path fill="#2D2D2D" d="M99.4,110.5l-13.3-23l-13.3,23l13.3,23L99.4,110.5z M86.2,97.5l7.5,13l-7.5,13l-7.5-13L86.2,97.5z"/>
<path fill="#2D2D2D" d="M123.9,81H97.3l13.3,23h26.6L123.9,81z M106,86h15l7.5,13h-15L106,86z"/>
<path fill="#2D2D2D" d="M172,74.6L129.2,0H43.1L0,74.6L43,149h86L172,74.6z M46,77h35.8l-17.9,31H28.1L46,77z M86.1,69.5l-17.9-31
	l17.9-31l17.9,31L86.1,69.5z M86.1,79.6l17.9,30.9l-17.9,30.9l-17.9-30.9L86.1,79.6z M90.4,77.1h35.7l17.9,31h-35.7L90.4,77.1z
	 M126.2,72H90.4l17.9-31h35.8L126.2,72z M63.8,41l17.9,31H45.9L28,41H63.8z M148.4,105.5l-17.9-31l17.9-31l17.9,31L148.4,105.5z
	 M126.3,5l17.9,31h-35.8L90.5,5H126.3z M46,5h35.8L63.9,36H28.1L46,5z M23.7,43.6l17.9,31l-17.9,31l-17.9-31L23.7,43.6z M45.9,144
	L28,113h35.8l17.9,31H45.9z M126.1,144H90.4l17.9-31H144L126.1,144z"/>
<path fill="#2D2D2D" d="M97.3,68h26.6l13.3-23h-26.6L97.3,68z M128.5,50L121,63h-15l7.5-13H128.5z"/>
<path fill="#2D2D2D" d="M34.9,117l13.3,23h26.6l-13.3-23H34.9z M51.1,135l-7.5-13h15l7.5,13H51.1z"/>
<path fill="#2D2D2D" d="M137.2,32L123.9,9H97.4l13.3,23H137.2z M121,14l7.5,13h-15L106,14H121z"/>
<path fill="#2D2D2D" d="M74.8,9H48.3L35,31.9h26.6L74.8,9z M43.6,26.9l7.5-13h15l-7.5,13H43.6z"/>
<path fill="#2D2D2D" d="M23.6,51.6l-13.3,23l13.3,23l13.3-23L23.6,51.6z M16.1,74.6l7.5-13l7.5,13l-7.5,13L16.1,74.6z"/>
<path fill="#2D2D2D" d="M135,74.6l13.3,23l13.3-23l-13.3-23L135,74.6z M148.3,87.5l-7.5-13l7.5-13l7.5,13L148.3,87.5z"/>
<path fill="#2D2D2D" d="M110.5,117l-13.3,23h26.6l13.3-23H110.5z M120.9,135h-15l7.5-13h15L120.9,135z"/>
<path fill="#C4141D" d="M73.9,187.5l13.3,23l13.3-23l-13.4-23L73.9,187.5z M87.1,200.5l-7.5-13l7.5-13l7.5,13L87.1,200.5z"/>
<path fill="#C4141D" d="M49.3,217h26.6l-13.3-23H36L49.3,217z M67.2,212h-15l-7.5-13h15L67.2,212z"/>
<path fill="#C4141D" d="M49.4,230l-13.3,23h26.6L76,230H49.4z M59.8,248h-15l7.5-13h15L59.8,248z"/>
<path fill="#C4141D" d="M100.5,259.5l-13.3-23l-13.3,23l13.3,23L100.5,259.5z M87.3,246.5l7.5,13l-7.5,13l-7.5-13L87.3,246.5z"/>
<path fill="#C4141D" d="M125,230H98.4l13.3,23h26.6L125,230z M107.1,235h15l7.5,13h-15L107.1,235z"/>
<path fill="#C4141D" d="M173.1,223.6L130.3,149H44.2L1.1,223.6l43,74.4h86L173.1,223.6z M47.1,226h35.8L65,257H29.2L47.1,226z
	 M87.2,218.5l-17.9-31l17.9-31l17.9,31L87.2,218.5z M87.2,228.6l17.9,30.9l-17.9,30.9l-17.9-30.9L87.2,228.6z M91.5,226.1h35.7
	l17.9,31h-35.7L91.5,226.1z M127.3,221H91.5l17.9-31h35.8L127.3,221z M64.9,190l17.9,31H47l-17.9-31H64.9z M149.5,254.5l-17.9-31
	l17.9-31l17.9,31L149.5,254.5z M127.4,154l17.9,31h-35.8l-17.9-31H127.4z M47.1,154h35.8L65,185H29.2L47.1,154z M24.8,192.6l17.9,31
	l-17.9,31l-17.9-31L24.8,192.6z M47,293l-17.9-31h35.8l17.9,31H47z M127.2,293H91.5l17.9-31h35.7L127.2,293z"/>
<path fill="#C4141D" d="M98.4,217H125l13.3-23h-26.6L98.4,217z M129.6,199l-7.5,13h-15l7.5-13H129.6z"/>
<path fill="#C4141D" d="M36,266l13.3,23h26.6l-13.3-23H36z M52.2,284l-7.5-13h15l7.5,13H52.2z"/>
<path fill="#C4141D" d="M138.3,181L125,158H98.5l13.3,23H138.3z M122.1,163l7.5,13h-15l-7.5-13H122.1z"/>
<path fill="#C4141D" d="M75.9,158H49.4l-13.3,22.9h26.6L75.9,158z M44.7,175.9l7.5-13h15l-7.5,13H44.7z"/>
<path fill="#C4141D" d="M24.7,200.6l-13.3,23l13.3,23l13.3-23L24.7,200.6z M17.2,223.6l7.5-13l7.5,13l-7.5,13L17.2,223.6z"/>
<path fill="#C4141D" d="M136.1,223.6l13.3,23l13.3-23l-13.3-23L136.1,223.6z M149.4,236.5l-7.5-13l7.5-13l7.5,13L149.4,236.5z"/>
<path fill="#C4141D" d="M111.6,266l-13.3,23h26.6l13.3-23H111.6z M122,284h-15l7.5-13h15L122,284z"/>
</svg>
