<?xml version="1.0" encoding="utf-8"?>
<!DOCTYPE svg PUBLIC "-//W3C//DTD SVG 1.1//EN" "http://www.w3.org/Graphics/SVG/1.1/DTD/svg11.dtd">
<svg version="1.1" id="logo" xmlns="http://www.w3.org/2000/svg" xmlns:xlink="http://www.w3.org/1999/xlink" x="0px" y="0px"
	 width="172px" height="149px" viewBox="0 0 172 149" enable-background="new 0 0 172 149" xml:space="preserve">
<path fill="#AAAAAA" d="M72.8,38.5l13.3,23l13.3-23L86,15.5L72.8,38.5z M86,51.5l-7.5-13l7.5-13l7.5,13L86,51.5z"/>
<path fill="#AAAAAA" d="M48.2,68h26.6L61.5,45H34.9L48.2,68z M66.1,63h-15l-7.5-13h15L66.1,63z"/>
<path fill="#AAAAAA" d="M48.3,81L35,104h26.6l13.3-23H48.3z M58.7,99h-15l7.5-13h15L58.7,99z"/>
<path fill="#AAAAAA" d="M99.4,110.5l-13.3-23l-13.3,23l13.3,23L99.4,110.5z M86.2,97.5l7.5,13l-7.5,13l-7.5-13L86.2,97.5z"/>
<path fill="#AAAAAA" d="M123.9,81H97.3l13.3,23h26.6L123.9,81z M106,86h15l7.5,13h-15L106,86z"/>
<path fill="#AAAAAA" d="M172,74.6L129.2,0H43.1L0,74.6L43,149h86L172,74.6z M46,77h35.8l-17.9,31H28.1L46,77z M86.1,69.5l-17.9-31
	l17.9-31l17.9,31L86.1,69.5z M86.1,79.6l17.9,30.9l-17.9,30.9l-17.9-30.9L86.1,79.6z M90.4,77.1h35.7l17.9,31h-35.7L90.4,77.1z
	 M126.2,72H90.4l17.9-31h35.8L126.2,72z M63.8,41l17.9,31H45.9L28,41H63.8z M148.4,105.5l-17.9-31l17.9-31l17.9,31L148.4,105.5z
	 M126.3,5l17.9,31h-35.8L90.5,5H126.3z M46,5h35.8L63.9,36H28.1L46,5z M23.7,43.6l17.9,31l-17.9,31l-17.9-31L23.7,43.6z M45.9,144
	L28,113h35.8l17.9,31H45.9z M126.1,144H90.4l17.9-31H144L126.1,144z"/>
<path fill="#AAAAAA" d="M97.3,68h26.6l13.3-23h-26.6L97.3,68z M128.5,50L121,63h-15l7.5-13H128.5z"/>
<path fill="#AAAAAA" d="M34.9,117l13.3,23h26.6l-13.3-23H34.9z M51.1,135l-7.5-13h15l7.5,13H51.1z"/>
<path fill="#AAAAAA" d="M137.2,32L123.9,9H97.4l13.3,23H137.2z M121,14l7.5,13h-15L106,14H121z"/>
<path fill="#AAAAAA" d="M74.8,9H48.3L35,31.9h26.6L74.8,9z M43.6,26.9l7.5-13h15l-7.5,13H43.6z"/>
<path fill="#AAAAAA" d="M23.6,51.6l-13.3,23l13.3,23l13.3-23L23.6,51.6z M16.1,74.6l7.5-13l7.5,13l-7.5,13L16.1,74.6z"/>
<path fill="#AAAAAA" d="M135,74.6l13.3,23l13.3-23l-13.3-23L135,74.6z M148.3,87.5l-7.5-13l7.5-13l7.5,13L148.3,87.5z"/>
<path fill="#AAAAAA" d="M110.5,117l-13.3,23h26.6l13.3-23H110.5z M120.9,135h-15l7.5-13h15L120.9,135z"/>
</svg>
