<svg xmlns="http://www.w3.org/2000/svg" xmlns:xlink="http://www.w3.org/1999/xlink" width="250" height="222" viewBox="0 0 250 222"><svg width="50" height="43.313953488372086" viewBox="0 0 172 149" id="gn-logo" x="0" y="0"><path fill="#EAEAEA" d="M72.8 38.5l13.3 23 13.3-23-13.4-23-13.2 23zm13.2 13l-7.5-13 7.5-13 7.5 13-7.5 13zM48.2 68h26.6L61.5 45H34.9l13.3 23zm17.9-5h-15l-7.5-13h15l7.5 13zM48.3 81L35 104h26.6l13.3-23H48.3zm10.4 18h-15l7.5-13h15l-7.5 13zM99.4 110.5l-13.3-23-13.3 23 13.3 23 13.3-23zm-13.2-13l7.5 13-7.5 13-7.5-13 7.5-13zM123.9 81H97.3l13.3 23h26.6l-13.3-23zM106 86h15l7.5 13h-15L106 86zM172 74.6L129.2 0H43.1L0 74.6 43 149h86l43-74.4zM46 77h35.8l-17.9 31H28.1L46 77zm40.1-7.5l-17.9-31 17.9-31 17.9 31-17.9 31zm0 10.1l17.9 30.9-17.9 30.9-17.9-30.9 17.9-30.9zm4.3-2.5h35.7l17.9 31h-35.7l-17.9-31zm35.8-5.1H90.4l17.9-31h35.8l-17.9 31zM63.8 41l17.9 31H45.9L28 41h35.8zm84.6 64.5l-17.9-31 17.9-31 17.9 31-17.9 31zM126.3 5l17.9 31h-35.8L90.5 5h35.8zM46 5h35.8L63.9 36H28.1L46 5zM23.7 43.6l17.9 31-17.9 31-17.9-31 17.9-31zM45.9 144L28 113h35.8l17.9 31H45.9zm80.2 0H90.4l17.9-31H144l-17.9 31zM97.3 68h26.6l13.3-23h-26.6L97.3 68zm31.2-18L121 63h-15l7.5-13h15zM34.9 117l13.3 23h26.6l-13.3-23H34.9zm16.2 18l-7.5-13h15l7.5 13h-15zM137.2 32L123.9 9H97.4l13.3 23h26.5zM121 14l7.5 13h-15L106 14h15zM74.8 9H48.3L35 31.9h26.6L74.8 9zM43.6 26.9l7.5-13h15l-7.5 13h-15zM23.6 51.6l-13.3 23 13.3 23 13.3-23-13.3-23zm-7.5 23l7.5-13 7.5 13-7.5 13-7.5-13zM135 74.6l13.3 23 13.3-23-13.3-23-13.3 23zm13.3 12.9l-7.5-13 7.5-13 7.5 13-7.5 13zM110.5 117l-13.3 23h26.6l13.3-23h-26.6zm10.4 18h-15l7.5-13h15l-7.5 13z"/></svg><svg width="50" height="43.313953488372086" viewBox="0 0 172 149" id="gn-logo-dark" x="50" y="44"><path fill="#2D2D2D" d="M72.8 38.5l13.3 23 13.3-23-13.4-23-13.2 23zm13.2 13l-7.5-13 7.5-13 7.5 13-7.5 13zM48.2 68h26.6L61.5 45H34.9l13.3 23zm17.9-5h-15l-7.5-13h15l7.5 13zM48.3 81L35 104h26.6l13.3-23H48.3zm10.4 18h-15l7.5-13h15l-7.5 13zM99.4 110.5l-13.3-23-13.3 23 13.3 23 13.3-23zm-13.2-13l7.5 13-7.5 13-7.5-13 7.5-13zM123.9 81H97.3l13.3 23h26.6l-13.3-23zM106 86h15l7.5 13h-15L106 86zM172 74.6L129.2 0H43.1L0 74.6 43 149h86l43-74.4zM46 77h35.8l-17.9 31H28.1L46 77zm40.1-7.5l-17.9-31 17.9-31 17.9 31-17.9 31zm0 10.1l17.9 30.9-17.9 30.9-17.9-30.9 17.9-30.9zm4.3-2.5h35.7l17.9 31h-35.7l-17.9-31zm35.8-5.1H90.4l17.9-31h35.8l-17.9 31zM63.8 41l17.9 31H45.9L28 41h35.8zm84.6 64.5l-17.9-31 17.9-31 17.9 31-17.9 31zM126.3 5l17.9 31h-35.8L90.5 5h35.8zM46 5h35.8L63.9 36H28.1L46 5zM23.7 43.6l17.9 31-17.9 31-17.9-31 17.9-31zM45.9 144L28 113h35.8l17.9 31H45.9zm80.2 0H90.4l17.9-31H144l-17.9 31zM97.3 68h26.6l13.3-23h-26.6L97.3 68zm31.2-18L121 63h-15l7.5-13h15zM34.9 117l13.3 23h26.6l-13.3-23H34.9zm16.2 18l-7.5-13h15l7.5 13h-15zM137.2 32L123.9 9H97.4l13.3 23h26.5zM121 14l7.5 13h-15L106 14h15zM74.8 9H48.3L35 31.9h26.6L74.8 9zM43.6 26.9l7.5-13h15l-7.5 13h-15zM23.6 51.6l-13.3 23 13.3 23 13.3-23-13.3-23zm-7.5 23l7.5-13 7.5 13-7.5 13-7.5-13zM135 74.6l13.3 23 13.3-23-13.3-23-13.3 23zm13.3 12.9l-7.5-13 7.5-13 7.5 13-7.5 13zM110.5 117l-13.3 23h26.6l13.3-23h-26.6zm10.4 18h-15l7.5-13h15l-7.5 13z"/></svg><svg width="50" height="43.313953488372086" viewBox="0 0 172 149" id="gn-logo-dark-on" x="100" y="88"><path fill="#C42126" d="M72.8 38.5l13.3 23 13.3-23-13.4-23-13.2 23zm13.2 13l-7.5-13 7.5-13 7.5 13-7.5 13zM48.2 68h26.6L61.5 45H34.9l13.3 23zm17.9-5h-15l-7.5-13h15l7.5 13zM48.3 81L35 104h26.6l13.3-23H48.3zm10.4 18h-15l7.5-13h15l-7.5 13zM99.4 110.5l-13.3-23-13.3 23 13.3 23 13.3-23zm-13.2-13l7.5 13-7.5 13-7.5-13 7.5-13zM123.9 81H97.3l13.3 23h26.6l-13.3-23zM106 86h15l7.5 13h-15L106 86zM172 74.6L129.2 0H43.1L0 74.6 43 149h86l43-74.4zM46 77h35.8l-17.9 31H28.1L46 77zm40.1-7.5l-17.9-31 17.9-31 17.9 31-17.9 31zm0 10.1l17.9 30.9-17.9 30.9-17.9-30.9 17.9-30.9zm4.3-2.5h35.7l17.9 31h-35.7l-17.9-31zm35.8-5.1H90.4l17.9-31h35.8l-17.9 31zM63.8 41l17.9 31H45.9L28 41h35.8zm84.6 64.5l-17.9-31 17.9-31 17.9 31-17.9 31zM126.3 5l17.9 31h-35.8L90.5 5h35.8zM46 5h35.8L63.9 36H28.1L46 5zM23.7 43.6l17.9 31-17.9 31-17.9-31 17.9-31zM45.9 144L28 113h35.8l17.9 31H45.9zm80.2 0H90.4l17.9-31H144l-17.9 31zM97.3 68h26.6l13.3-23h-26.6L97.3 68zm31.2-18L121 63h-15l7.5-13h15zM34.9 117l13.3 23h26.6l-13.3-23H34.9zm16.2 18l-7.5-13h15l7.5 13h-15zM137.2 32L123.9 9H97.4l13.3 23h26.5zM121 14l7.5 13h-15L106 14h15zM74.8 9H48.3L35 31.9h26.6L74.8 9zM43.6 26.9l7.5-13h15l-7.5 13h-15zM23.6 51.6l-13.3 23 13.3 23 13.3-23-13.3-23zm-7.5 23l7.5-13 7.5 13-7.5 13-7.5-13zM135 74.6l13.3 23 13.3-23-13.3-23-13.3 23zm13.3 12.9l-7.5-13 7.5-13 7.5 13-7.5 13zM110.5 117l-13.3 23h26.6l13.3-23h-26.6zm10.4 18h-15l7.5-13h15l-7.5 13z"/></svg><svg width="50" height="44.526901669758814" viewBox="0 0 107.8 96" id="home-icon" x="150" y="132"><path fill="#2D2D2D" d="M106.6 45.8L54 0 1.4 45.8c-.8.7-1.4 1.8-1.4 3.1C0 51.1 1.9 53 4.1 53h12.6v37.2c0 3.2 2.6 5.8 5.8 5.8h14.6c3.2 0 5.8-2.6 5.8-5.8V69h22v21.2c0 3.2 2.6 5.8 5.8 5.8h14.6c3.2 0 5.8-2.6 5.8-5.8V53h12.6c2.3 0 4.1-1.9 4.1-4.1.2-1.3-.4-2.4-1.2-3.1z"/></svg><svg width="50" height="44.526901669758814" viewBox="0 0 107.8 96" id="home-icon-on" x="200" y="177"><path fill="#C42327" d="M106.6 45.8L54 0 1.4 45.8c-.9.8-1.4 1.9-1.4 3.1C0 51.2 1.9 53 4.1 53h12.6v37.2c0 3.2 2.6 5.8 5.8 5.8h14.6c3.2 0 5.8-2.6 5.8-5.8V69h22v21.2c0 3.2 2.6 5.8 5.8 5.8h14.6c3.2 0 5.8-2.6 5.8-5.8V53h12.6c2.3 0 4.1-1.9 4.1-4.1.2-1.3-.4-2.4-1.2-3.1z"/></svg></svg>