<?xml version="1.0" encoding="utf-8"?>
<!DOCTYPE svg PUBLIC "-//W3C//DTD SVG 1.1//EN" "http://www.w3.org/Graphics/SVG/1.1/DTD/svg11.dtd">
<svg version="1.1" id="Home" xmlns="http://www.w3.org/2000/svg" xmlns:xlink="http://www.w3.org/1999/xlink" x="0px" y="0px"
	 width="108px" height="192px" viewBox="0 0 108 192" enable-background="new 0 0 108 192" xml:space="preserve">
<path fill="#2D2D2D" d="M106.6,45.8L106.6,45.8L54,0L1.4,45.8l0,0C0.6,46.5,0,47.6,0,48.9C0,51.1,1.9,53,4.1,53h12.6v37.2
	c0,3.2,2.6,5.8,5.8,5.8h14.6c3.2,0,5.8-2.6,5.8-5.8V69h11h11v21.2c0,3.2,2.6,5.8,5.8,5.8h14.6c3.2,0,5.8-2.6,5.8-5.8V53h12.6
	c2.3,0,4.1-1.9,4.1-4.1C108,47.6,107.4,46.5,106.6,45.8z"/>
<path fill="#C42126" d="M106.6,141.8L106.6,141.8L54,96L1.4,141.8l0,0c-0.9,0.8-1.4,1.9-1.4,3.1c0,2.3,1.9,4.1,4.1,4.1h12.6v37.2
	c0,3.2,2.6,5.8,5.8,5.8h14.6c3.2,0,5.8-2.6,5.8-5.8V165h11h11v21.2c0,3.2,2.6,5.8,5.8,5.8h14.6c3.2,0,5.8-2.6,5.8-5.8V149h12.6
	c2.3,0,4.1-1.9,4.1-4.1C108,143.6,107.4,142.5,106.6,141.8z"/>
</svg>
