<?xml version="1.0" encoding="utf-8"?>
<!-- Generator: Adobe Illustrator 18.0.0, SVG Export Plug-In . SVG Version: 6.00 Build 0)  -->
<!DOCTYPE svg PUBLIC "-//W3C//DTD SVG 1.1//EN" "http://www.w3.org/Graphics/SVG/1.1/DTD/svg11.dtd">
<svg version="1.1" id="Layer_1" xmlns="http://www.w3.org/2000/svg" xmlns:xlink="http://www.w3.org/1999/xlink" x="0px" y="0px"
	 width="124.8px" height="72px" viewBox="-0.1 0 124.8 72" enable-background="new -0.1 0 124.8 72" xml:space="preserve">
<g id="Layer_1_1_" display="none" opacity="0.18">
	<g id="RpHZ78.tif" display="inline" opacity="0.41">
		
			<image overflow="visible" enable-background="new    " width="499" height="499" id="Layer_0_1_" xlink:href="239F4AA768D649E8.png"  transform="matrix(0.7482 0 0 0.7482 -102.0628 -148.1989)">
		</image>
	</g>
</g>
<g id="Layer_9" display="none">
	<polygon display="inline" fill="none" stroke="#000000" stroke-width="5" stroke-miterlimit="10" points="74.2,2.6 84.5,-15.4 
		94.9,2.6 84.5,20.6 	"/>
	<polygon display="inline" fill="none" stroke="#000000" stroke-width="5" stroke-miterlimit="10" points="63.8,2.6 84.6,-33.4 
		105.4,2.6 84.6,38.6 	"/>
	<polygon display="inline" fill="none" stroke="#000000" stroke-width="5" stroke-miterlimit="10" points="48.2,29.6 37.8,11.6 
		58.5,11.6 68.9,29.6 	"/>
	<polygon display="inline" fill="none" stroke="#000000" stroke-width="5" stroke-miterlimit="10" points="43,38.6 22.2,2.6 
		63.8,2.6 84.5,38.6 	"/>
	<polygon display="inline" fill="none" stroke="#000000" stroke-width="5" stroke-miterlimit="10" points="58.6,65.6 37.9,65.6 
		48.3,47.6 69,47.6 	"/>
	<polygon display="inline" fill="none" stroke="#000000" stroke-width="5" stroke-miterlimit="10" points="63.8,74.6 22.3,74.6 
		43,38.6 84.6,38.6 	"/>
	<polygon display="inline" fill="none" stroke="#000000" stroke-width="5" stroke-miterlimit="10" points="95.1,74.6 84.7,92.6 
		74.3,74.6 84.7,56.6 	"/>
	<polygon display="inline" fill="none" stroke="#000000" stroke-width="5" stroke-miterlimit="10" points="105.4,74.6 84.6,110.6 
		63.8,74.6 84.6,38.6 	"/>
	<polygon display="inline" fill="none" stroke="#000000" stroke-width="5" stroke-miterlimit="10" points="120.9,47.6 131.3,65.6 
		110.6,65.6 100.2,47.6 	"/>
	<polygon display="inline" fill="none" stroke="#000000" stroke-width="5" stroke-miterlimit="10" points="126.1,38.6 146.9,74.6 
		105.3,74.6 84.5,38.6 	"/>
	<polygon display="inline" fill="none" stroke="#000000" stroke-width="5" stroke-miterlimit="10" points="110.5,11.5 131.3,11.5 
		120.9,29.5 100.1,29.5 	"/>
	<polygon display="inline" fill="none" stroke="#000000" stroke-width="5" stroke-miterlimit="10" points="105.4,2.6 146.9,2.6 
		126.1,38.6 84.6,38.6 	"/>
	<polygon display="inline" fill="none" stroke="#000000" stroke-width="5" stroke-miterlimit="10" points="58.6,83.6 69,101.5 
		48.2,101.5 37.8,83.6 	"/>
	<polygon display="inline" fill="none" stroke="#000000" stroke-width="5" stroke-miterlimit="10" points="63.7,74.6 84.5,110.6 
		43,110.6 22.2,74.6 	"/>
	<polygon display="inline" fill="none" stroke="#000000" stroke-width="5" stroke-miterlimit="10" points="110.6,-6.4 100.2,-24.4 
		121,-24.4 131.4,-6.4 	"/>
	<polygon display="inline" fill="none" stroke="#000000" stroke-width="5" stroke-miterlimit="10" points="105.5,2.6 84.7,-33.4 
		126.2,-33.4 147,2.6 	"/>
	<polygon display="inline" fill="none" stroke="#000000" stroke-width="5" stroke-miterlimit="10" points="48.2,-24.5 69,-24.5 
		58.6,-6.5 37.8,-6.5 	"/>
	<polygon display="inline" fill="none" stroke="#000000" stroke-width="5" stroke-miterlimit="10" points="43.1,-33.4 84.6,-33.4 
		63.8,2.6 22.3,2.6 	"/>
	<polygon display="inline" fill="none" stroke="#000000" stroke-width="5" stroke-miterlimit="10" points="11.7,38.6 22.1,20.6 
		32.5,38.6 22.1,56.6 	"/>
	<polygon display="inline" fill="none" stroke="#000000" stroke-width="5" stroke-miterlimit="10" points="1.4,38.6 22.2,2.6 
		43,38.6 22.2,74.6 	"/>
	<polygon display="inline" fill="none" stroke="#000000" stroke-width="5" stroke-miterlimit="10" points="136.4,38.6 146.8,20.6 
		157.2,38.6 146.8,56.6 	"/>
	<polygon display="inline" fill="none" stroke="#000000" stroke-width="5" stroke-miterlimit="10" points="126.1,38.6 146.9,2.6 
		167.7,38.6 146.9,74.6 	"/>
	<polygon display="inline" fill="none" stroke="#000000" stroke-width="5" stroke-miterlimit="10" points="110.5,83.6 131.3,83.6 
		120.9,101.5 100.1,101.5 	"/>
	<polygon display="inline" fill="none" stroke="#000000" stroke-width="5" stroke-miterlimit="10" points="105.3,74.6 146.9,74.6 
		126.1,110.6 84.5,110.6 	"/>
	<polygon display="inline" fill="none" stroke="#000000" stroke-width="5" stroke-miterlimit="10" points="-3.8,47.4 6.5,65.4 
		-14.2,65.4 -24.6,47.4 	"/>
	<polygon display="inline" fill="none" stroke="#000000" stroke-width="5" stroke-miterlimit="10" points="1.3,38.5 22.1,74.5 
		-19.5,74.5 -40.2,38.5 	"/>
	<polygon display="inline" fill="none" stroke="#000000" stroke-width="5" stroke-miterlimit="10" points="-14.3,11.4 6.5,11.4 
		-3.9,29.4 -24.6,29.4 	"/>
	<polygon display="inline" fill="none" stroke="#000000" stroke-width="5" stroke-miterlimit="10" points="-19.4,2.5 22.1,2.5 
		1.4,38.4 -40.2,38.4 	"/>
</g>
<g id="BG_Pattern">
	<g>
		<polygon points="90.6,0 92.1,2.6 84.6,15.6 77.1,2.6 78.6,0 72.8,0 71.3,2.6 84.6,25.6 97.8,2.6 96.3,0 		"/>
		<path d="M46.7,32.2h26.6L60,9.2H33.5L46.7,32.2z M64.6,27.2h-15l-7.5-13h15L64.6,27.2z"/>
		<path d="M60.1,68.2l13.3-23H46.8l-13.3,23H60.1z M49.7,50.2h15l-7.5,13h-15L49.7,50.2z"/>
		<polygon points="84.7,61.7 90.7,72 96.5,72 84.7,51.7 72.9,72 78.7,72 		"/>
		<polygon points="112,63.1 104.5,50.1 119.5,50.1 124.7,59.1 124.7,49.1 122.4,45.1 95.9,45.1 109.1,68.1 124.7,68.1 124.7,63.1 		
			"/>
		<path d="M102.5,2.6l-17.9,31l-17.9-31L68.3,0H-0.1v5h17.9L-0.1,36l0,0v5l17.9,31h8.9l17.9-30.9h35.8l0,0l0,0L62.4,72h5.8
			l16.3-28.3L100.9,72h5.9L89,41.2h35.7v-5H88.9l17.9-31h17.9V0H101L102.5,2.6z M22.2,69.7l-17.9-31l17.9-31l17.9,31L22.2,69.7z
			 M44.5,36.1l-17.9-31h35.8l17.9,31H44.5z"/>
		<polygon points="119.5,27.1 104.5,27.1 112,14.1 124.7,14.1 124.7,9.1 109.1,9.1 95.8,32.1 122.4,32.1 124.7,28.1 124.7,18.1 		
			"/>
		<path d="M35.4,38.7l-13.3-23l-13.2,23l13.3,23L35.4,38.7z M22.2,25.7l7.5,13l-7.5,13l-7.5-13L22.2,25.7z"/>
		<polygon points="-0.1,48.9 -0.1,58.9 2.2,63 -0.1,63 -0.1,68 10.9,68 		"/>
		<polygon points="-0.1,9 -0.1,14 2.2,14 -0.1,18 -0.1,28 10.9,9 		"/>
	</g>
</g>
<g id="Logo_OBJ" display="none">
	<path display="inline" d="M71.4,2.6l13.3,23L98,2.6l-13.3-23L71.4,2.6z M84.7,15.6l-7.5-13l7.5-13l7.5,13L84.7,15.6z"/>
	<path display="inline" d="M46.9,32.2h26.6l-13.3-23H33.6L46.9,32.2z M64.7,27.2h-15l-7.5-13h15L64.7,27.2z"/>
	<path display="inline" d="M46.9,45.2l-13.3,23h26.6l13.3-23C73.5,45.2,46.9,45.2,46.9,45.2z M57.3,63.2h-15l7.5-13h15L57.3,63.2z"
		/>
	<path display="inline" d="M98.1,74.6l-13.3-23l-13.3,23l13.3,23L98.1,74.6z M84.8,61.7l7.5,13l-7.5,13l-7.5-13L84.8,61.7z"/>
	<path display="inline" d="M122.5,45.1H96l13.3,23h26.6L122.5,45.1z M104.6,50.1h15l7.5,13h-15L104.6,50.1z"/>
	<path display="inline" d="M170.7,38.7l-42.9-74.6H41.7l-43,74.6l43,74.5h86L170.7,38.7z M44.6,41.1h35.8l-17.9,31H26.7L44.6,41.1z
		 M84.7,33.6l-17.9-31l17.9-31l17.9,31L84.7,33.6z M84.7,43.7l17.9,30.9l-17.9,30.9L66.9,74.6L84.7,43.7z M89.1,41.2h35.7l17.9,31
		H107L89.1,41.2z M124.8,36.1H89.1l17.9-31h35.8L124.8,36.1z M62.5,5.1l17.9,31H44.6l-17.9-31C26.7,5.1,62.5,5.1,62.5,5.1z
		 M147,69.7l-17.9-31l17.9-31l17.9,31L147,69.7z M124.9-30.9l17.9,31H107l-17.9-31H124.9z M44.6-30.9h35.8l-17.9,31H26.7L44.6-30.9z
		 M22.3,7.7l17.9,31l-17.9,31l-17.9-31L22.3,7.7z M44.5,108.1l-17.9-31h35.8l17.9,31H44.5z M124.8,108.1H89.1l17.9-31h35.7
		L124.8,108.1z"/>
	<path display="inline" d="M95.9,32.1h26.6l13.3-23h-26.6L95.9,32.1z M127.1,14.1l-7.5,13h-15l7.5-13H127.1z"/>
	<path display="inline" d="M33.6,81.1l13.3,23h26.6l-13.3-23H33.6z M49.8,99.1l-7.5-13h15l7.5,13H49.8z"/>
	<path display="inline" d="M135.9-3.8l-13.3-23H96l13.3,23C109.3-3.8,135.9-3.8,135.9-3.8z M119.7-21.8l7.5,13h-15l-7.5-13H119.7z"
		/>
	<path display="inline" d="M73.5-26.9H46.9l-13.3,23h26.6L73.5-26.9z M42.3-8.9l7.5-13h15l-7.5,13H42.3z"/>
	<path display="inline" d="M22.3,15.7L9,38.7l13.3,23l13.3-23L22.3,15.7z M14.8,38.7l7.5-13l7.5,13l-7.5,13L14.8,38.7z"/>
	<path display="inline" d="M133.7,38.7l13.3,23l13.3-23l-13.3-23L133.7,38.7z M147,51.7l-7.5-13l7.5-13l7.5,13L147,51.7z"/>
	<path display="inline" d="M109.2,81.1l-13.3,23h26.6l13.3-23H109.2z M119.6,99.1h-15l7.5-13h15L119.6,99.1z"/>
</g>
</svg>
